<svg xmlns="http://www.w3.org/2000/svg" width="75" height="75" viewBox="0 0 75 75"><circle cx="37.5" cy="37.5" r="37.5" fill="#93014A"/><path fill="#FFF" d="M26.5 73.2c-.6-1-1-2.2-1.1-3.4-.5-3-.7-6-.5-9l.1-1.3c.4 1 1 1.4 1.4 2.3l-.2-.7-1-4.6c-.1-.4 0 .4 0 0l.7-8.2v-.4c.4 2 1.3 3.1 2.8 4.6l-.5-.8c-.1-.5-.3-1-.6-1.4-.7-1.2-.6-3-.7-4.2 0-.6.3-.7.8-1 .3-.2 0-1.1 0-1.4-.4-1.5 0-2 .4-3.4 1.2-3.3 2.8-6.4 4.8-9.4l2.5-4v-.1c-.4 1.5 1 3 1.5 3.6.2-2.4.1-6.2 1.9-8l-.2 2.8 1.1-3.3c.8-1 1.4-2 2.4-2.9 2.5-2.3 5.2-4.3 8.2-6a9 9 0 0 1 2.2-.8h.5l-.4.7c-1 1.4-2 2.8-2.8 4.4l-1.2 3c0 .2-.2.3-.3.4-.7.8-1.8 1.3-2.5 2l-.9 1.7c.7-.7 2.4-1.8 3.1-2.5l.1-.3-.1.6c-.7 2-1 4-1.5 6-.7 3.2-1.7 6.2-2.9 9.2l-1.2 3.7a9.5 9.5 0 0 1-3 4.4l-1.9.6c.8-.1 4.4-1 5.4-2.7-.5 3.3-3 7.3-4 10.6l1.2-1.7.4-.5-.7 3.1-1 5a14.5 14.5 0 0 1-6 9l-2.3 1.9 1.4-1c-.8 1-1.3 3-1.9 4.2m8-39.5l-.3-.2-.1.3-1.5 3.7-2 5.5c-1.2 3.6-2 7.2-2.9 11 0 .4-.1.4-.5.5v.2l.3.3a242 242 0 0 0-3 17.4h.4c.2-1.3.7-2.4.9-3.6.6-4 1.1-7.7 1.9-11.6.5-2.9 1-5.7 1.7-8.5.5-2.3 1.3-4.5 2-6.7l3-8 .1-.3z"/></svg>